<svg width="17" height="22" viewBox="0 0 17 22" fill="none" xmlns="http://www.w3.org/2000/svg">
<g clip-path="url(#clip0_5_3950)">
<path d="M2.42911 4.55847C2.42911 4.55847 2.82859 4.14829 3.62756 3.32793C4.42652 2.50757 5.96738 2.09739 8.25013 2.09739C10.5329 2.09739 12.4732 2.91775 14.0711 4.55847C15.6691 6.1992 16.468 8.18947 16.468 10.5293V17.0779C16.468 17.8484 16.1969 18.5118 15.6548 19.0682C15.1126 19.6246 14.4706 19.9028 13.7287 19.9028H10.9894V12.3698H14.6276V10.5293C14.6276 8.70309 14.0069 7.1551 12.7657 5.88532C11.5244 4.61554 10.0193 3.98065 8.25013 3.98065C6.48099 3.98065 4.97581 4.61554 3.73456 5.88532C2.49332 7.1551 1.87269 8.70309 1.87269 10.5293V12.3698H5.51083V19.9028H2.77153C2.02963 19.9028 1.38761 19.6246 0.845456 19.0682C0.303303 18.5118 0.0322266 17.8484 0.0322266 17.0779V10.5293C0.0322266 8.18947 0.831189 6.1992 2.42911 4.55847Z" fill="black"/>
</g>
<defs>
<clipPath id="clip0_5_3950">
<rect width="16.5" height="22" fill="white" transform="matrix(1 0 0 -1 0 22)"/>
</clipPath>
</defs>
</svg>
