<svg width="50" height="50" viewBox="0 0 50 50" fill="none" xmlns="http://www.w3.org/2000/svg">
<g clip-path="url(#clip0_5_4205)">
<path d="M22.6287 18.5797C22.9789 18.7354 23.154 19.0078 23.154 19.3969V30.6031C23.154 30.9922 22.9789 31.2646 22.6287 31.4202C22.473 31.498 22.3368 31.5369 22.2201 31.5369C22.0645 31.5369 21.8699 31.4591 21.6364 31.3035L17.8427 28.2685H14.7493C14.1267 28.2685 13.8154 27.9572 13.8154 27.3346V22.6653C13.8154 22.0428 14.1267 21.7315 14.7493 21.7315H17.8427L21.6364 18.6381C21.7921 18.5214 21.9866 18.463 22.2201 18.463C22.3368 18.463 22.473 18.5019 22.6287 18.5797ZM36.1695 25C36.1695 28.5408 34.9049 31.5759 32.3757 34.105C32.2201 34.2607 32.045 34.3385 31.8504 34.3385C31.6948 34.3385 31.5392 34.2607 31.3835 34.105C31.0333 33.7938 31.0333 33.463 31.3835 33.1128C33.6403 30.9338 34.7687 28.2296 34.7687 25C34.7687 21.7704 33.6403 19.0661 31.3835 16.8871C31.0333 16.5369 31.0333 16.2062 31.3835 15.8949C31.7337 15.5836 32.0645 15.5836 32.3757 15.8949C34.9049 18.4241 36.1695 21.4591 36.1695 25ZM29.8076 18.2879C31.5975 20.1556 32.4925 22.393 32.4925 25C32.4925 27.607 31.5975 29.8443 29.8076 31.712C29.652 31.8677 29.4769 31.9455 29.2824 31.9455C29.1267 31.9455 28.9711 31.8677 28.8154 31.712C28.4652 31.3618 28.4458 31.0311 28.7571 30.7198C30.3135 29.1634 31.0917 27.2568 31.0917 25C31.0917 22.7432 30.3135 20.8366 28.7571 19.2801C28.4458 18.9689 28.4652 18.6381 28.8154 18.2879C29.1656 17.9377 29.4964 17.9377 29.8076 18.2879ZM26.831 20.6809C27.9983 21.9261 28.582 23.3657 28.582 25C28.582 26.6342 27.9983 28.0739 26.831 29.319C26.7143 29.4358 26.5392 29.4941 26.3057 29.4941C26.1111 29.4941 25.9555 29.4358 25.8388 29.319C25.5275 29.0078 25.5275 28.677 25.8388 28.3268C26.7337 27.4319 27.1812 26.3229 27.1812 25C27.1812 23.677 26.7337 22.5681 25.8388 21.6731C25.5275 21.3229 25.5275 20.9922 25.8388 20.6809C26.1501 20.3696 26.4808 20.3696 26.831 20.6809Z" fill="black"/>
</g>
<defs>
<clipPath id="clip0_5_4205">
<rect width="22.4531" height="30" fill="white" transform="matrix(1 0 0 -1 13.7656 40)"/>
</clipPath>
</defs>
</svg>
